HIERARCHY
ROOT Hips
{
	OFFSET 0.00000 0.00000 0.00000
	CHANNELS 6 Xposition Yposition Zposition Zrotation Yrotation Xrotation 
	JOINT LHipJoint
	{
		OFFSET 0 0 0
		CHANNELS 3 Zrotation Yrotation Xrotation
		JOINT LeftHip
		{
			OFFSET 1.62329 -1.80800 0.67318
			CHANNELS 3 Zrotation Yrotation Xrotation
			JOINT LeftKnee
			{
				OFFSET 2.57139 -7.06484 0.00000
				CHANNELS 3 Zrotation Yrotation Xrotation
				JOINT LeftAnkle
				{
					OFFSET 2.52017 -6.92413 0.00000
					CHANNELS 3 Zrotation Yrotation Xrotation
					JOINT LeftToe
					{
						OFFSET 0.23295 -0.64001 2.10214
						CHANNELS 3 Zrotation Yrotation Xrotation
						End Site
						{
							OFFSET 0.00000 -0.00000 1.10139
						}
					}
				}
			}
		}
	}
	JOINT RHipJoint
	{
		OFFSET 0 0 0
		CHANNELS 3 Zrotation Yrotation Xrotation
		JOINT RightHip
		{
			OFFSET -1.48061 -1.80800 0.67318
			CHANNELS 3 Zrotation Yrotation Xrotation
			JOINT RightKnee
			{
				OFFSET -2.63258 -7.23296 0.00000
				CHANNELS 3 Zrotation Yrotation Xrotation
				JOINT RightAnkle
				{
					OFFSET -2.54779 -7.00000 0.00000
					CHANNELS 3 Zrotation Yrotation Xrotation
					JOINT RightToe
					{
						OFFSET -0.23067 -0.63376 2.12161
						CHANNELS 3 Zrotation Yrotation Xrotation
						End Site
						{
							OFFSET -0.00000 -0.00000 1.11000
						}
					}
				}
			}
		}
	}
	JOINT lowerback
	{
		OFFSET 0 0 0
		CHANNELS 3 Zrotation Yrotation Xrotation
		JOINT Chest
		{
			OFFSET -0.02108 2.07573 -0.16981
			CHANNELS 3 Zrotation Yrotation Xrotation
			JOINT Chest2
			{
				OFFSET 0.05070 2.08439 -0.03141
				CHANNELS 3 Zrotation Yrotation Xrotation
				JOINT lowerneck
				{
					OFFSET 0 0 0
					CHANNELS 3 Zrotation Yrotation Xrotation
					JOINT Neck
					{
						OFFSET -0.10731 1.60408 0.31370
						CHANNELS 3 Zrotation Yrotation Xrotation
						JOINT Head
						{
							OFFSET 0.08411 1.65679 -0.30822
							CHANNELS 3 Zrotation Yrotation Xrotation
							End Site
							{
								OFFSET 0.03911 1.69149 -0.14146
							}
						}
					}
				}
				JOINT LeftCollar
				{
					OFFSET 0 0 0
					CHANNELS 3 Zrotation Yrotation Xrotation
					JOINT LeftShoulder
					{
						OFFSET 3.52315 0.73219 -0.54694
CHANNELS 3 Zrotation Xrotation Yrotation
						JOINT LeftElbow
						{
OFFSET 0 -5.324620 -0.000000
CHANNELS 3 Zrotation Xrotation Yrotation
							JOINT LeftWrist
							{
OFFSET 0 -3.484020 -0.000000
CHANNELS 3 Zrotation Xrotation Yrotation
								JOINT lhand
								{
									OFFSET 0 0 0
CHANNELS 3 Zrotation Xrotation Yrotation
									JOINT LFingers
									{
OFFSET 0 -0.572480 -0.000000
CHANNELS 3 Zrotation Xrotation Yrotation
										End Site
										{
OFFSET 0 -0.461540 -0.000000
										}
									}
								}
								JOINT LThumb
								{
OFFSET 0 0.000000 0.000000
CHANNELS 3 Zrotation Xrotation Yrotation
									End Site
									{
OFFSET 0 -0.468590 0.468590
									}
								}
							}
						}
					}
				}
				JOINT RightCollar
				{
					OFFSET 0 0 0
					CHANNELS 3 Zrotation Yrotation Xrotation
					JOINT RightShoulder
					{
						OFFSET -3.41766 0.93592 -0.10019
CHANNELS 3 Zrotation Xrotation Yrotation
						JOINT RightElbow
						{
OFFSET 0 -5.335890 -0.000000
CHANNELS 3 Zrotation Xrotation Yrotation
							JOINT RightWrist
							{
OFFSET 0 -3.641340 -0.000000
CHANNELS 3 Zrotation Xrotation Yrotation
								JOINT rhand
								{
									OFFSET 0 0 0
CHANNELS 3 Zrotation Xrotation Yrotation
									JOINT RFingers
									{
OFFSET 0 -0.734810 -0.000000
CHANNELS 3 Zrotation Xrotation Yrotation
										End Site
										{
OFFSET 0 -0.592420 -0.000000
										}
									}
								}
								JOINT RThumb
								{
OFFSET 0 0.000000 0.000000
CHANNELS 3 Zrotation Xrotation Yrotation
									End Site
									{
OFFSET 0 -0.601470 0.601470
									}
								}
							}
						}
					}
				}
			}
		}
	}
}
MOTION
Frames: 4
Frame Time: 0.008333333333333333
-0.080600 17.991700 -0.763200 1.116900 -11.091700 2.855000 0.000000 0.000000 0.000000 -21.607000 -1.555200 1.678600 0.328600 3.684500 10.190600 0.311100 2.862400 -11.985400 0.388700 -4.003400 -11.086200 0.000000 0.000000 0.000000 15.381700 11.653200 -4.797300 -1.734800 -8.290400 23.599700 -0.798400 2.264000 -16.267000 -0.045800 -1.381200 3.798300 -3.467900 -1.684900 -1.346900 1.976000 -2.212000 -0.408900 3.935000 -1.112900 0.544600 -9.856300 -2.707900 -21.302000 4.551800 -1.825100 28.064200 3.131100 -1.266700 13.119400 -0.000000 0.000000 0.000000 6.972100 -8.046500 -52.738600 76.023300 -59.248800 47.926300 31.399200 8.607700 -18.396900 0.000000 0.000000 0.000000 -7.125000 0.000000 0.000000 3.341800 51.238600 -0.514100 -0.000000 0.000000 0.000000 -5.310700 3.270600 20.345400 -16.561300 -26.275800 -3.891100 -17.864200 17.852800 -8.144200 0.000000 0.000000 0.000000 7.125000 0.000000 -0.000000 6.508900 21.450900 3.701200
-0.080429 17.993666 -0.765422 1.135876 -10.981607 2.902610 0.000000 0.000000 0.000000 -21.618710 -1.635120 1.674668 0.323557 3.656293 10.111535 0.305886 2.861032 -11.898984 0.392375 -4.022290 -11.139366 0.000000 0.000000 0.000000 15.357596 11.606701 -4.875083 -1.737792 -8.297067 23.620129 -0.801648 2.181174 -16.318884 -0.038706 -1.269056 3.489476 -3.656460 -1.694644 -1.089105 2.136438 -2.232429 -0.699603 4.221087 -1.108626 0.116708 -9.877840 -2.538231 -21.246099 4.352129 -1.520635 28.528163 3.119817 -1.176865 13.273256 0.000000 0.000000 0.000000 6.648403 -8.196168 -52.745011 74.967930 -59.127937 47.020000 31.370822 8.220751 -18.413824 0.000000 0.000000 0.000000 -7.125000 0.000000 0.000000 3.310430 51.252447 -0.510339 0.000000 0.000000 0.000000 -5.617729 3.682422 20.507462 -16.617372 -26.350591 -3.915973 -17.783596 17.740143 -8.102659 0.000000 0.000000 0.000000 7.125000 0.000000 0.000000 6.567878 21.498339 3.728039
-0.080968 17.993078 -0.767219 1.168048 -10.957508 2.853300 0.000000 0.000000 0.000000 -21.632265 -1.506655 1.721609 0.317946 3.624609 10.022749 0.305071 2.751606 -11.815264 0.401230 -4.066652 -11.264335 0.000000 0.000000 0.000000 15.336472 11.561834 -4.851050 -1.742486 -8.307778 23.652832 -0.804258 2.208961 -16.340258 -0.035301 -1.212679 3.334262 -3.559013 -1.677853 -1.251911 2.030808 -2.205249 -0.607310 4.050176 -1.100592 0.292402 -9.711287 -2.414963 -21.255899 4.251009 -1.370135 28.642334 3.080509 -1.109451 13.306282 0.000000 0.000000 0.000000 6.805616 -8.915152 -52.729072 73.826922 -58.986569 46.041472 31.374514 7.720705 -18.498578 0.000000 0.000000 0.000000 -7.125000 0.000000 0.000000 3.303610 51.349024 -0.517150 0.000000 0.000000 0.000000 -5.462579 3.551039 20.443827 -16.628816 -26.365854 -3.921051 -17.664608 17.894406 -8.028125 0.000000 0.000000 0.000000 7.125000 0.000000 0.000000 6.655166 21.581892 3.765522
-0.081482 17.991402 -0.768534 1.225380 -10.972792 2.776250 0.000000 0.000000 0.000000 -21.676386 -1.332203 1.787088 0.312219 3.592101 9.931861 0.304366 2.642460 -11.734635 0.409001 -4.105394 -11.373362 0.000000 0.000000 0.000000 15.285712 11.521759 -4.794664 -1.746344 -8.316496 23.679640 -0.803125 2.281737 -16.313349 -0.041171 -1.306023 3.591322 -3.490877 -1.645811 -1.423567 1.919239 -2.156925 -0.465562 3.889371 -1.083719 0.522867 -9.612540 -2.319421 -21.369940 4.213061 -1.242858 28.764971 3.074567 -1.050519 13.368518 0.000000 0.000000 0.000000 6.940012 -9.705705 -52.730508 72.623185 -58.825487 45.010746 31.417273 7.495952 -18.731966 0.000000 0.000000 0.000000 -7.125000 0.000000 0.000000 3.317953 51.620984 -0.541586 0.000000 0.000000 0.000000 -5.299830 3.305243 20.327727 -16.599016 -26.326159 -3.907857 -17.595826 18.120801 -7.884260 0.000000 0.000000 0.000000 7.125000 0.000000 0.000000 6.707452 21.734909 3.772059
